<svg width="187" height="51" viewBox="0 0 187 51" fill="none" xmlns="http://www.w3.org/2000/svg">
<path d="M46.4 38V24.308H51.3V38H46.4ZM48.836 22.712C48.108 22.712 47.5013 22.4693 47.016 21.984C46.5307 21.48 46.288 20.8547 46.288 20.108C46.288 19.38 46.5307 18.764 47.016 18.26C47.5013 17.756 48.108 17.504 48.836 17.504C49.6013 17.504 50.2173 17.756 50.684 18.26C51.1693 18.764 51.412 19.38 51.412 20.108C51.412 20.8547 51.1693 21.48 50.684 21.984C50.2173 22.4693 49.6013 22.712 48.836 22.712ZM63.0149 38V30.272C63.0149 29.6373 62.8283 29.1427 62.4549 28.788C62.0816 28.4147 61.6056 28.228 61.0269 28.228C60.6349 28.228 60.2803 28.312 59.9629 28.48C59.6643 28.648 59.4309 28.8813 59.2629 29.18C59.0949 29.4787 59.0109 29.8427 59.0109 30.272L57.1069 29.376C57.1069 28.2747 57.3496 27.332 57.8349 26.548C58.3203 25.7453 58.9829 25.1293 59.8229 24.7C60.6816 24.252 61.6523 24.028 62.7349 24.028C63.7243 24.028 64.6016 24.2613 65.3669 24.728C66.1509 25.176 66.7669 25.7827 67.2149 26.548C67.6629 27.3133 67.8869 28.1813 67.8869 29.152V38H63.0149ZM54.1389 38V24.308H59.0109V38H54.1389ZM77.3792 38.308C75.8485 38.308 74.4952 38.0093 73.3192 37.412C72.1432 36.796 71.2192 35.9467 70.5472 34.864C69.8752 33.7813 69.5392 32.54 69.5392 31.14C69.5392 29.7587 69.8658 28.536 70.5192 27.472C71.1725 26.3893 72.0592 25.54 73.1792 24.924C74.3178 24.2893 75.5965 23.972 77.0152 23.972C78.3965 23.972 79.6192 24.2707 80.6832 24.868C81.7658 25.4467 82.6058 26.2587 83.2032 27.304C83.8192 28.3307 84.1272 29.5067 84.1272 30.832C84.1272 31.112 84.1085 31.4013 84.0712 31.7C84.0525 31.98 83.9965 32.3067 83.9032 32.68L71.8352 32.736V29.6L81.9712 29.516L79.7872 30.888C79.7685 30.1227 79.6565 29.4973 79.4512 29.012C79.2458 28.508 78.9472 28.1253 78.5552 27.864C78.1632 27.6027 77.6685 27.472 77.0712 27.472C76.4552 27.472 75.9232 27.6213 75.4752 27.92C75.0272 28.2187 74.6818 28.6387 74.4392 29.18C74.1965 29.7213 74.0752 30.3747 74.0752 31.14C74.0752 31.924 74.2058 32.596 74.4672 33.156C74.7285 33.6973 75.1018 34.108 75.5872 34.388C76.0725 34.668 76.6698 34.808 77.3792 34.808C78.0512 34.808 78.6392 34.696 79.1432 34.472C79.6658 34.248 80.1325 33.9027 80.5432 33.436L83.0912 35.984C82.4192 36.7493 81.5978 37.328 80.6272 37.72C79.6752 38.112 78.5925 38.308 77.3792 38.308ZM85.9671 38V24.308H90.8391V38H85.9671ZM94.5631 38V30.076C94.5631 29.4973 94.3857 29.0493 94.0311 28.732C93.6764 28.396 93.2377 28.228 92.7151 28.228C92.3417 28.228 92.0151 28.3027 91.7351 28.452C91.4551 28.6013 91.2311 28.816 91.0631 29.096C90.9137 29.3573 90.8391 29.684 90.8391 30.076L88.9351 29.32C88.9351 28.2187 89.1777 27.276 89.6631 26.492C90.1484 25.708 90.8017 25.1013 91.6231 24.672C92.4444 24.2427 93.3777 24.028 94.4231 24.028C95.3564 24.028 96.1964 24.252 96.9431 24.7C97.7084 25.1293 98.3151 25.736 98.7631 26.52C99.2111 27.304 99.4351 28.228 99.4351 29.292V38H94.5631ZM103.159 38V30.076C103.159 29.4973 102.982 29.0493 102.627 28.732C102.272 28.396 101.834 28.228 101.311 28.228C100.956 28.228 100.63 28.3027 100.331 28.452C100.051 28.6013 99.8271 28.816 99.6591 29.096C99.5097 29.3573 99.4351 29.684 99.4351 30.076L96.5791 29.936C96.6164 28.704 96.8871 27.6493 97.3911 26.772C97.8951 25.8947 98.5857 25.2227 99.4631 24.756C100.359 24.2707 101.367 24.028 102.487 24.028C103.551 24.028 104.503 24.252 105.343 24.7C106.183 25.148 106.836 25.8013 107.303 26.66C107.788 27.5 108.031 28.508 108.031 29.684V38H103.159ZM116.288 38.28C115.019 38.28 113.89 37.972 112.9 37.356C111.911 36.74 111.136 35.9 110.576 34.836C110.016 33.7533 109.736 32.5307 109.736 31.168C109.736 29.7867 110.016 28.5547 110.576 27.472C111.136 26.3893 111.911 25.5493 112.9 24.952C113.89 24.336 115.019 24.028 116.288 24.028C117.147 24.028 117.931 24.1867 118.64 24.504C119.35 24.8027 119.928 25.232 120.376 25.792C120.843 26.352 121.123 26.9867 121.216 27.696V34.584C121.123 35.312 120.843 35.956 120.376 36.516C119.928 37.0573 119.35 37.4867 118.64 37.804C117.931 38.1213 117.147 38.28 116.288 38.28ZM117.324 33.94C118.127 33.94 118.771 33.6787 119.256 33.156C119.76 32.6333 120.012 31.9613 120.012 31.14C120.012 30.5987 119.9 30.1227 119.676 29.712C119.452 29.3013 119.135 28.9747 118.724 28.732C118.332 28.4893 117.875 28.368 117.352 28.368C116.83 28.368 116.363 28.4893 115.952 28.732C115.56 28.9747 115.243 29.3107 115 29.74C114.776 30.1507 114.664 30.6173 114.664 31.14C114.664 31.6813 114.776 32.1667 115 32.596C115.224 33.0067 115.542 33.3333 115.952 33.576C116.363 33.8187 116.82 33.94 117.324 33.94ZM119.816 38V34.332L120.516 30.972L119.816 27.668V24.308H124.604V38H119.816ZM155.141 38.308C153.666 38.308 152.35 38 151.193 37.384C150.054 36.7493 149.149 35.8907 148.477 34.808C147.805 33.7067 147.469 32.4747 147.469 31.112C147.469 29.7493 147.796 28.536 148.449 27.472C149.121 26.3893 150.036 25.54 151.193 24.924C152.35 24.2893 153.657 23.972 155.113 23.972C156.569 23.972 157.866 24.2893 159.005 24.924C160.162 25.54 161.077 26.3893 161.749 27.472C162.421 28.536 162.757 29.7493 162.757 31.112C162.757 32.4747 162.421 33.7067 161.749 34.808C161.096 35.8907 160.19 36.7493 159.033 37.384C157.894 38 156.597 38.308 155.141 38.308ZM155.113 33.968C155.654 33.968 156.121 33.856 156.513 33.632C156.924 33.3893 157.241 33.0533 157.465 32.624C157.689 32.1947 157.801 31.7 157.801 31.14C157.801 30.58 157.68 30.0947 157.437 29.684C157.213 29.2547 156.905 28.928 156.513 28.704C156.121 28.4613 155.654 28.34 155.113 28.34C154.59 28.34 154.124 28.4613 153.713 28.704C153.302 28.9467 152.985 29.2827 152.761 29.712C152.537 30.1227 152.425 30.608 152.425 31.168C152.425 31.7093 152.537 32.1947 152.761 32.624C152.985 33.0533 153.302 33.3893 153.713 33.632C154.124 33.856 154.59 33.968 155.113 33.968ZM167.44 38L163.1 24.308H167.804L170.38 34.276L168.98 34.304L172.032 24.308H176.372L179.424 34.304L178.024 34.276L180.628 24.308H185.332L180.992 38H176.596L173.684 28.536H174.776L171.78 38H167.44Z" fill="white"/>
<path d="M127.784 38V18.148H131.284L132.796 22.208V38H127.784ZM141.476 38L129.884 23.272L131.284 18.148L142.904 32.876L141.476 38ZM141.476 38L140.188 33.828V18.148H145.2V38H141.476Z" fill="url(#paint0_linear_4_229)"/>
<mask id="mask0_4_229" style="mask-type:luminance" maskUnits="userSpaceOnUse" x="0" y="0" width="42" height="42">
<path d="M41.7375 0H0V41.8022H41.7375V0Z" fill="white"/>
</mask>
<g mask="url(#mask0_4_229)">
<path d="M4.99502 18.9994C5.00111 18.958 5.00111 18.958 5.00731 18.9157C5.26963 17.1588 5.84504 15.368 6.62047 13.7716C6.63873 13.7336 6.65699 13.6955 6.67582 13.6564C6.76986 13.4629 6.86937 13.2736 6.97482 13.0861C7.01549 13.0137 7.05568 12.941 7.09555 12.8681C8.57236 10.1707 10.7166 7.83221 13.2985 6.15693C13.3641 6.11395 13.429 6.07011 13.4938 6.02621C14.02 5.66902 14.5852 5.37468 15.1472 5.07847C15.1908 5.05552 15.2343 5.03257 15.2793 5.00874C15.5265 4.87953 15.7753 4.7591 16.0322 4.64991C16.0706 4.63323 16.0706 4.63324 16.1098 4.61635C17.3638 4.07199 18.6615 3.6612 20.0025 3.39192C20.045 3.38328 20.0877 3.37471 20.1316 3.36585C21.1142 3.17089 22.1099 3.05587 23.1118 3.02906C23.1537 3.0279 23.1959 3.0266 23.2395 3.02527C23.9981 3.00415 24.7455 3.03764 25.501 3.10735C25.5394 3.11075 25.5775 3.11408 25.6169 3.11759C26.273 3.17713 26.9219 3.29497 27.5688 3.41786C27.5968 3.42285 27.625 3.42791 27.654 3.43321C27.9427 3.48821 28.2211 3.57174 28.5019 3.65794C28.5542 3.67399 28.6064 3.68999 28.6586 3.70579C28.8252 3.75695 28.9918 3.8085 29.1583 3.86006C29.1866 3.86887 29.2148 3.87762 29.2439 3.88668C30.2469 4.19765 31.2276 4.52227 32.1557 5.02149C32.2709 5.08311 32.387 5.14193 32.5044 5.19941C32.7624 5.32837 33.0113 5.47263 33.2607 5.61747C33.3415 5.66446 33.4226 5.71111 33.5038 5.75775C33.8033 5.93065 34.0879 6.11335 34.3654 6.32048C34.4387 6.37144 34.5122 6.42207 34.5862 6.47216C34.6232 6.49744 34.66 6.52265 34.6982 6.5485C34.7748 6.60052 34.8516 6.65194 34.9287 6.70322C35.1221 6.83287 35.3056 6.96357 35.4773 7.12098C35.5511 7.18698 35.6269 7.24879 35.7043 7.31043C36.7701 8.17092 37.6908 9.15716 38.5685 10.2031C38.4701 10.3184 38.3666 10.3802 38.2325 10.4504C38.1883 10.4736 38.1443 10.4969 38.0988 10.5207C38.05 10.546 38.0011 10.5715 37.9523 10.5969C37.9008 10.624 37.8493 10.6508 37.7978 10.6778C37.6583 10.7512 37.5185 10.8242 37.3788 10.897C37.2325 10.9732 37.0865 11.0498 36.9407 11.1262C36.6643 11.271 36.3877 11.4156 36.1111 11.5599C35.7962 11.7245 35.4814 11.8891 35.1669 12.054C34.5193 12.3929 33.8719 12.7314 33.2241 13.0698C33.1142 12.9816 33.0109 12.8918 32.9108 12.7927C32.5207 12.4105 32.1191 12.0548 31.6879 11.7197C31.6663 11.7027 31.6446 11.6859 31.6222 11.6685C31.5787 11.6344 31.5349 11.6007 31.4914 11.567C31.4398 11.5272 31.3888 11.4871 31.3379 11.4467C31.0885 11.2519 30.8253 11.0876 30.5535 10.9255C30.5109 10.8998 30.4682 10.8741 30.424 10.8477C30.3414 10.798 30.2588 10.7484 30.1761 10.6991C30.0944 10.6499 30.0144 10.5995 29.9344 10.5479C29.7325 10.425 29.5132 10.3335 29.2979 10.2368C29.2214 10.2025 29.1451 10.1679 29.0688 10.133C27.4132 9.38312 25.4654 8.85158 23.6335 8.97652C23.5151 8.98362 23.3968 8.98465 23.2783 8.98607C22.9437 8.9902 22.614 9.00308 22.2819 9.04427C22.2497 9.04827 22.2176 9.05227 22.1847 9.05623C20.6509 9.24919 19.1341 9.68495 17.7736 10.4261C17.6525 10.4903 17.5311 10.5535 17.4085 10.6155C17.1099 10.7676 16.8331 10.939 16.5567 11.1278C16.5132 11.1564 16.4699 11.1851 16.4251 11.2145C15.2138 12.0176 14.1848 13.0438 13.3128 14.1996C13.265 14.2627 13.2168 14.3258 13.1683 14.3883C13.0218 14.5781 12.8854 14.7702 12.7597 14.9741C12.7422 15.0023 12.7248 15.0306 12.7068 15.0597C12.4387 15.4965 12.1923 15.9407 11.9741 16.4048C11.9595 16.4358 11.9449 16.4669 11.9298 16.4989C11.6794 17.0422 11.4951 17.6038 11.3174 18.1739C11.3051 18.2134 11.2927 18.253 11.28 18.2937C11.0972 18.883 10.9371 19.4618 10.8614 20.0756C10.857 20.1092 10.8525 20.1429 10.8479 20.1775C10.5343 22.5999 10.8626 25.1133 11.9258 27.3261C11.9744 27.428 12.0199 27.5304 12.0644 27.6343C12.2403 28.0331 12.4511 28.4215 12.6893 28.7867C12.7042 28.81 12.7192 28.8333 12.7347 28.8574C13.3383 29.7925 14.0406 30.672 14.8687 31.4204C14.9352 31.481 15.0002 31.5429 15.0654 31.605C15.4211 31.9373 15.8064 32.2247 16.2009 32.5088C16.2265 32.5274 16.252 32.5459 16.2785 32.565C16.7131 32.8786 17.1643 33.1979 17.6638 33.3991C17.7461 33.4343 17.8218 33.476 17.8996 33.52C18.1508 33.6595 18.4142 33.774 18.6773 33.889C18.7044 33.9009 18.7317 33.9129 18.7599 33.9253C18.97 34.0161 19.1812 34.0948 19.3989 34.1648C19.432 34.1755 19.4648 34.1861 19.4988 34.1971C22.3705 35.118 25.4277 35.1845 28.2704 34.0882C28.3183 34.0697 28.3665 34.0514 28.416 34.0324C28.67 33.932 28.9187 33.8221 29.1663 33.7066C29.2663 33.6602 29.3671 33.6161 29.4686 33.5727C29.8513 33.4041 30.221 33.2026 30.5723 32.976C30.6079 32.953 30.6435 32.9301 30.6802 32.9065C30.802 32.8271 30.9227 32.7465 31.0434 32.6655C31.0839 32.6384 31.1245 32.6114 31.1662 32.5836C32.2456 31.8462 33.2525 30.9149 34.0118 29.8497C34.0661 29.777 34.1245 29.7088 34.1835 29.6397C34.3742 29.4072 34.5291 29.1511 34.6878 28.8963C34.7414 28.8104 34.7954 28.7248 34.8495 28.6393C35.0849 28.2644 35.2945 27.8819 35.4848 27.4823L41.537 28.4634C41.2094 29.3434 40.8125 30.1978 40.3671 31.0002C40.3139 31.0962 40.2615 31.1927 40.2096 31.2894C40.0248 31.6304 39.8233 31.9553 39.6032 32.2746C39.5382 32.3694 39.4748 32.4652 39.4113 32.561C38.2676 34.276 36.8048 35.841 35.1313 37.0523C35.078 37.0913 35.0249 37.1304 34.9717 37.1694C34.5361 37.4875 34.0936 37.7863 33.6263 38.0566C33.5231 38.1168 33.4216 38.1786 33.3203 38.2419C33.1666 38.337 33.0083 38.4202 32.8476 38.5028C32.7538 38.553 32.6647 38.6074 32.5751 38.6646C32.4039 38.7711 32.2266 38.8541 32.0425 38.936C31.9421 38.9814 31.8431 39.028 31.7442 39.0766C31.4099 39.2408 31.0747 39.3876 30.7249 39.5157C30.615 39.556 30.5064 39.5985 30.3983 39.6433C29.0378 40.2041 27.5114 40.5594 26.0456 40.7083C26.0034 40.7126 25.9613 40.717 25.9179 40.7215C25.7753 40.736 25.6326 40.75 25.4899 40.764C25.442 40.7688 25.3941 40.7736 25.3447 40.7784C24.4907 40.8624 23.6622 40.8724 22.8055 40.8226C22.7646 40.8204 22.7237 40.8182 22.6815 40.8159C21.1635 40.7331 19.695 40.4882 18.2435 40.0351C18.2082 40.0241 18.1726 40.0131 18.1363 40.0018C17.2459 39.7236 16.3677 39.4157 15.5332 38.995C15.4302 38.9431 15.327 38.8923 15.2237 38.8416C14.3374 38.4037 13.5113 37.8978 12.7099 37.3201C12.6834 37.3011 12.657 37.282 12.6296 37.2624C12.1924 36.9474 11.7689 36.621 11.3621 36.2675C11.3329 36.2425 11.3037 36.2175 11.2738 36.1918C10.8064 35.7906 10.3718 35.3644 9.95147 34.9149C9.92253 34.8841 9.89378 34.8534 9.86403 34.8216C9.45275 34.381 9.06635 33.926 8.70178 33.4462C8.66583 33.3989 8.66583 33.3989 8.62915 33.3507C8.35855 32.993 8.0986 32.6317 7.86248 32.2503C7.78729 32.1302 7.70833 32.0138 7.62796 31.8972C7.47316 31.6654 7.3453 31.4218 7.21877 31.1739C7.12857 30.9978 7.03198 30.8301 6.92499 30.6636C6.8741 30.5815 6.83483 30.4977 6.79813 30.4084C6.74113 30.2748 6.67912 30.1473 6.60937 30.0199C6.5048 29.8251 6.4233 29.6242 6.34225 29.4187C6.29555 29.303 6.24528 29.1904 6.19229 29.0775C5.69227 27.9869 5.38242 26.7814 5.14528 25.6102C5.13663 25.5676 5.12798 25.525 5.11907 25.4812C4.94459 24.6079 4.8029 23.7094 4.80952 22.8167C4.80805 22.7024 4.80093 22.592 4.7909 22.4783C4.69373 21.325 4.82557 20.1401 4.99502 18.9994Z" fill="url(#paint1_linear_4_229)"/>
<path d="M27.4141 23.6197C27.4285 23.6483 27.4428 23.6771 27.4576 23.7065C27.4218 23.7424 27.386 23.7783 27.3491 23.8152C27.3706 23.7507 27.392 23.6861 27.4141 23.6197Z" fill="url(#paint2_linear_4_229)"/>
<path d="M12.0449 15.4378C12.0666 15.5031 12.0666 15.5031 12.0395 15.5588C12.0015 15.6118 12.0015 15.6118 11.9364 15.6552C11.9654 15.5772 12.0007 15.5083 12.0449 15.4378Z" fill="url(#paint3_linear_4_229)"/>
</g>
<defs>
<linearGradient id="paint0_linear_4_229" x1="45" y1="28.5" x2="187" y2="28.5" gradientUnits="userSpaceOnUse">
<stop offset="0.509615" stop-color="#0E457F"/>
<stop offset="0.716346" stop-color="#5B9DE4"/>
</linearGradient>
<linearGradient id="paint1_linear_4_229" x1="5.60918" y1="16.3224" x2="41.812" y2="27.5788" gradientUnits="userSpaceOnUse">
<stop stop-color="#1082EC"/>
<stop offset="0.831731" stop-color="#BF1278"/>
</linearGradient>
<linearGradient id="paint2_linear_4_229" x1="27.4034" y1="23.6197" x2="27.4034" y2="23.8152" gradientUnits="userSpaceOnUse">
<stop stop-color="#1082EC"/>
<stop offset="0.831731" stop-color="#BF1278"/>
</linearGradient>
<linearGradient id="paint3_linear_4_229" x1="11.9985" y1="15.4378" x2="11.9985" y2="15.6552" gradientUnits="userSpaceOnUse">
<stop stop-color="#1082EC"/>
<stop offset="0.831731" stop-color="#BF1278"/>
</linearGradient>
</defs>
</svg>
