<svg width="42" height="42" viewBox="0 0 42 42" fill="none" xmlns="http://www.w3.org/2000/svg">
<mask id="mask0_21002_46" style="mask-type:luminance" maskUnits="userSpaceOnUse" x="0" y="0" width="42" height="42">
<path d="M41.7375 0H0V41.8022H41.7375V0Z" fill="white"/>
</mask>
<g mask="url(#mask0_21002_46)">
<path d="M4.99502 18.9994C5.00111 18.958 5.00111 18.958 5.00731 18.9157C5.26963 17.1588 5.84504 15.368 6.62047 13.7716C6.63873 13.7336 6.65699 13.6955 6.67582 13.6564C6.76986 13.4629 6.86937 13.2736 6.97482 13.0861C7.01549 13.0137 7.05568 12.941 7.09555 12.8681C8.57236 10.1707 10.7166 7.83221 13.2985 6.15693C13.3641 6.11395 13.429 6.07011 13.4938 6.02621C14.02 5.66902 14.5852 5.37468 15.1472 5.07847C15.1908 5.05552 15.2343 5.03257 15.2793 5.00874C15.5265 4.87953 15.7753 4.75909 16.0322 4.64991C16.0706 4.63323 16.0706 4.63324 16.1098 4.61635C17.3638 4.07199 18.6615 3.6612 20.0025 3.39192C20.045 3.38328 20.0877 3.37471 20.1316 3.36585C21.1142 3.17089 22.1099 3.05587 23.1118 3.02906C23.1537 3.0279 23.1959 3.0266 23.2395 3.02527C23.9981 3.00415 24.7455 3.03764 25.501 3.10735C25.5394 3.11075 25.5775 3.11409 25.6169 3.11759C26.273 3.17713 26.9219 3.29497 27.5688 3.41787C27.5968 3.42285 27.625 3.42791 27.654 3.43321C27.9427 3.48822 28.2211 3.57174 28.5019 3.65794C28.5542 3.67399 28.6064 3.68999 28.6586 3.70579C28.8252 3.75695 28.9918 3.8085 29.1583 3.86006C29.1866 3.86887 29.2148 3.87762 29.2439 3.88668C30.2469 4.19766 31.2276 4.52227 32.1557 5.02149C32.2709 5.08311 32.387 5.14193 32.5044 5.19941C32.7624 5.32837 33.0113 5.47263 33.2607 5.61747C33.3415 5.66446 33.4226 5.71111 33.5038 5.75775C33.8033 5.93065 34.0879 6.11335 34.3654 6.32048C34.4387 6.37144 34.5122 6.42207 34.5862 6.47216C34.6232 6.49744 34.66 6.52265 34.6982 6.5485C34.7748 6.60052 34.8516 6.65194 34.9287 6.70322C35.1221 6.83287 35.3056 6.96357 35.4773 7.12098C35.5511 7.18698 35.6269 7.24879 35.7043 7.31043C36.7701 8.17092 37.6908 9.15716 38.5685 10.2031C38.4701 10.3184 38.3666 10.3802 38.2325 10.4504C38.1883 10.4736 38.1443 10.4969 38.0988 10.5207C38.05 10.546 38.0011 10.5715 37.9523 10.5969C37.9008 10.624 37.8493 10.6508 37.7978 10.6778C37.6583 10.7512 37.5185 10.8242 37.3788 10.897C37.2325 10.9732 37.0865 11.0498 36.9407 11.1262C36.6643 11.271 36.3877 11.4156 36.1111 11.5599C35.7962 11.7245 35.4814 11.8891 35.1669 12.054C34.5193 12.3929 33.8719 12.7314 33.2241 13.0698C33.1142 12.9816 33.0109 12.8918 32.9108 12.7927C32.5207 12.4105 32.1191 12.0548 31.6879 11.7197C31.6663 11.7027 31.6446 11.6859 31.6222 11.6685C31.5787 11.6344 31.5349 11.6007 31.4914 11.567C31.4398 11.5272 31.3888 11.4871 31.3379 11.4467C31.0885 11.2519 30.8253 11.0876 30.5535 10.9255C30.5109 10.8998 30.4682 10.8741 30.424 10.8477C30.3414 10.798 30.2588 10.7484 30.1761 10.6991C30.0944 10.6499 30.0144 10.5995 29.9344 10.5479C29.7325 10.425 29.5132 10.3335 29.2979 10.2368C29.2214 10.2025 29.1451 10.1679 29.0688 10.133C27.4132 9.38312 25.4654 8.85158 23.6335 8.97652C23.5151 8.98362 23.3968 8.98465 23.2783 8.98607C22.9437 8.99021 22.614 9.00308 22.2819 9.04427C22.2497 9.04827 22.2176 9.05227 22.1847 9.05623C20.6509 9.24919 19.1341 9.68495 17.7736 10.4261C17.6525 10.4903 17.5311 10.5535 17.4085 10.6155C17.1099 10.7676 16.8331 10.939 16.5567 11.1278C16.5132 11.1564 16.4699 11.1851 16.4251 11.2145C15.2138 12.0176 14.1848 13.0438 13.3128 14.1996C13.265 14.2627 13.2168 14.3258 13.1683 14.3883C13.0217 14.5781 12.8854 14.7702 12.7597 14.9741C12.7422 15.0023 12.7248 15.0306 12.7068 15.0597C12.4387 15.4965 12.1923 15.9407 11.9741 16.4048C11.9595 16.4358 11.9449 16.4669 11.9298 16.4989C11.6794 17.0422 11.4951 17.6038 11.3174 18.1739C11.3051 18.2134 11.2927 18.253 11.28 18.2937C11.0972 18.883 10.9371 19.4618 10.8614 20.0756C10.857 20.1092 10.8525 20.1429 10.8479 20.1775C10.5343 22.5999 10.8626 25.1133 11.9258 27.3261C11.9744 27.428 12.0199 27.5304 12.0644 27.6343C12.2403 28.0331 12.4511 28.4215 12.6893 28.7867C12.7042 28.81 12.7192 28.8333 12.7347 28.8574C13.3383 29.7925 14.0406 30.672 14.8687 31.4204C14.9352 31.481 15.0002 31.5429 15.0654 31.605C15.4211 31.9373 15.8064 32.2247 16.2009 32.5088C16.2265 32.5274 16.252 32.5459 16.2785 32.565C16.7131 32.8786 17.1643 33.1979 17.6638 33.3991C17.7461 33.4343 17.8218 33.476 17.8996 33.52C18.1508 33.6595 18.4142 33.774 18.6773 33.889C18.7044 33.9009 18.7317 33.9129 18.7599 33.9253C18.97 34.0161 19.1812 34.0948 19.3989 34.1648C19.432 34.1755 19.4648 34.1861 19.4988 34.1971C22.3705 35.118 25.4277 35.1845 28.2704 34.0882C28.3183 34.0697 28.3665 34.0514 28.416 34.0324C28.67 33.932 28.9187 33.8221 29.1663 33.7066C29.2663 33.6602 29.3671 33.6161 29.4686 33.5727C29.8513 33.4041 30.221 33.2026 30.5723 32.976C30.6079 32.953 30.6435 32.9301 30.6802 32.9065C30.802 32.8271 30.9227 32.7465 31.0434 32.6655C31.0839 32.6384 31.1245 32.6114 31.1662 32.5836C32.2456 31.8462 33.2525 30.9149 34.0118 29.8497C34.0661 29.777 34.1245 29.7088 34.1835 29.6397C34.3742 29.4072 34.5291 29.1511 34.6878 28.8963C34.7414 28.8104 34.7954 28.7248 34.8495 28.6393C35.0849 28.2644 35.2945 27.8819 35.4848 27.4823L41.537 28.4634C41.2094 29.3434 40.8125 30.1978 40.3671 31.0002C40.3139 31.0962 40.2615 31.1927 40.2096 31.2894C40.0248 31.6304 39.8233 31.9553 39.6032 32.2746C39.5382 32.3694 39.4748 32.4652 39.4113 32.561C38.2676 34.276 36.8048 35.841 35.1313 37.0523C35.078 37.0913 35.0249 37.1304 34.9717 37.1694C34.5361 37.4875 34.0936 37.7863 33.6263 38.0566C33.5231 38.1168 33.4216 38.1786 33.3203 38.2419C33.1666 38.337 33.0083 38.4202 32.8476 38.5028C32.7538 38.553 32.6647 38.6074 32.5751 38.6646C32.4039 38.7711 32.2266 38.8541 32.0425 38.936C31.9421 38.9814 31.8431 39.028 31.7442 39.0766C31.4099 39.2408 31.0747 39.3876 30.7249 39.5157C30.615 39.556 30.5064 39.5985 30.3983 39.6433C29.0378 40.2041 27.5114 40.5594 26.0456 40.7083C26.0034 40.7126 25.9613 40.717 25.9179 40.7215C25.7753 40.736 25.6326 40.75 25.4899 40.764C25.442 40.7688 25.3941 40.7736 25.3447 40.7784C24.4907 40.8624 23.6622 40.8724 22.8055 40.8226C22.7646 40.8204 22.7237 40.8182 22.6815 40.8159C21.1635 40.7331 19.695 40.4882 18.2435 40.0351C18.2082 40.0241 18.1726 40.0131 18.1363 40.0018C17.2459 39.7236 16.3677 39.4157 15.5332 38.995C15.4302 38.9431 15.327 38.8923 15.2237 38.8416C14.3374 38.4037 13.5113 37.8978 12.7099 37.3201C12.6834 37.3011 12.657 37.282 12.6296 37.2624C12.1924 36.9474 11.7689 36.621 11.3621 36.2675C11.3329 36.2425 11.3037 36.2175 11.2738 36.1918C10.8064 35.7906 10.3718 35.3644 9.95147 34.9149C9.92253 34.8841 9.89378 34.8534 9.86403 34.8216C9.45275 34.381 9.06635 33.926 8.70178 33.4462C8.66583 33.3989 8.66583 33.3989 8.62915 33.3507C8.35855 32.993 8.0986 32.6317 7.86248 32.2503C7.78729 32.1302 7.70833 32.0138 7.62796 31.8972C7.47316 31.6654 7.3453 31.4218 7.21877 31.1739C7.12857 30.9978 7.03198 30.8301 6.92499 30.6636C6.8741 30.5815 6.83483 30.4977 6.79813 30.4084C6.74113 30.2748 6.67912 30.1473 6.60937 30.0199C6.5048 29.8251 6.4233 29.6242 6.34225 29.4187C6.29555 29.303 6.24528 29.1904 6.19229 29.0775C5.69227 27.9869 5.38242 26.7814 5.14528 25.6102C5.13663 25.5676 5.12798 25.525 5.11907 25.4812C4.94459 24.6079 4.8029 23.7094 4.80952 22.8167C4.80805 22.7024 4.80093 22.592 4.7909 22.4783C4.69373 21.325 4.82557 20.1401 4.99502 18.9994Z" fill="url(#paint0_linear_21002_46)"/>
<path d="M27.4141 23.6197C27.4285 23.6483 27.4428 23.6771 27.4576 23.7065C27.4218 23.7424 27.386 23.7783 27.3491 23.8152C27.3706 23.7507 27.392 23.6861 27.4141 23.6197Z" fill="url(#paint1_linear_21002_46)"/>
<path d="M12.0449 15.4378C12.0666 15.5031 12.0666 15.5031 12.0395 15.5588C12.0015 15.6118 12.0015 15.6118 11.9364 15.6552C11.9654 15.5772 12.0007 15.5083 12.0449 15.4378Z" fill="url(#paint2_linear_21002_46)"/>
</g>
<defs>
<linearGradient id="paint0_linear_21002_46" x1="5.60918" y1="16.3224" x2="41.812" y2="27.5788" gradientUnits="userSpaceOnUse">
<stop stop-color="#1082EC"/>
<stop offset="0.831731" stop-color="#BF1278"/>
</linearGradient>
<linearGradient id="paint1_linear_21002_46" x1="27.4034" y1="23.6197" x2="27.4034" y2="23.8152" gradientUnits="userSpaceOnUse">
<stop stop-color="#1082EC"/>
<stop offset="0.831731" stop-color="#BF1278"/>
</linearGradient>
<linearGradient id="paint2_linear_21002_46" x1="11.9985" y1="15.4378" x2="11.9985" y2="15.6552" gradientUnits="userSpaceOnUse">
<stop stop-color="#1082EC"/>
<stop offset="0.831731" stop-color="#BF1278"/>
</linearGradient>
</defs>
</svg>
